<?xml version="1.0" encoding="utf-8"?>
<!-- Generator: Adobe Illustrator 15.0.0, SVG Export Plug-In . SVG Version: 6.00 Build 0)  -->
<!DOCTYPE svg PUBLIC "-//W3C//DTD SVG 1.1//EN" "http://www.w3.org/Graphics/SVG/1.1/DTD/svg11.dtd">
<svg version="1.1" id="Layer_1" xmlns="http://www.w3.org/2000/svg" xmlns:xlink="http://www.w3.org/1999/xlink" x="0px" y="0px"
	 width="39px" height="49.5px" viewBox="0 0 39 49.5" enable-background="new 0 0 39 49.5" xml:space="preserve">
<g>
	<polyline fill="#FFFFFF" points="23.9,4.4 23.9,9 21.4,9.2 23.9,4.4 	"/>
	<rect x="7" y="17.9" fill="#FFFFFF" width="12.6" height="1.7"/>
	<rect x="7" y="28.5" fill="#FFFFFF" width="17.9" height="1.7"/>
	<rect x="7.2" y="33.7" fill="#FFFFFF" width="17.9" height="1.7"/>
	<rect x="7.1" y="39" fill="#FFFFFF" width="15.6" height="1.7"/>
	<rect x="7.2" y="23.1" fill="#FFFFFF" width="22.899" height="1.7"/>
	<path fill="#FFFFFF" d="M8.8,14c0,0,0.8-3.2,5.7-5.2l9.8-0.2c0,0,5.601,2,5.8,5.4H8.8z"/>
	<path fill="#FFFFFF" d="M19.2,0c-2.6,0-4.8,2.2-4.8,4.8c0,2.6,2.1,4.8,4.8,4.8c2.6,0,4.8-2.2,4.8-4.8C24,2.2,21.8,0,19.2,0z
		 M19,6.8c-1.1,0-2.1-0.9-2.1-2.1c0-1.1,0.9-2.1,2.1-2.1c1.1,0,2.1,0.9,2.1,2.1C21.1,5.9,20.2,6.8,19,6.8z"/>
	<polygon fill="#FFFFFF" points="14.5,5.3 14.5,8.8 16.8,9 	"/>
	<path fill="#FFFFFF" d="M4.3,7.4l5.3-0.2c0,0,2.1-1.7,2-3.8L2.1,3.5c0,0-2.1,1.2-2.1,3.1l0.1,40.3c0,0,0.7,2.6,2.6,2.6l34.2-0.2
		c0,0,1.8-0.8,2.1-2.7V5.9c0,0-0.3-2.2-2.5-2.3l-8.4,0.1c0,0-1,2.1,1.2,3.5l5.2,0.1l1,1.1l0.1,36.7l-1,1.101L4.6,46l-1-1V8.3
		L4.3,7.4z"/>
</g>
</svg>
