<?xml version="1.0" encoding="utf-8"?>
<!-- Generator: Adobe Illustrator 15.0.0, SVG Export Plug-In . SVG Version: 6.00 Build 0)  -->
<!DOCTYPE svg PUBLIC "-//W3C//DTD SVG 1.1//EN" "http://www.w3.org/Graphics/SVG/1.1/DTD/svg11.dtd">
<svg version="1.1" id="Layer_1" xmlns="http://www.w3.org/2000/svg" xmlns:xlink="http://www.w3.org/1999/xlink" x="0px" y="0px"
	 width="46.617px" height="33.892px" viewBox="0.004 0 46.617 33.892" enable-background="new 0.004 0 46.617 33.892"
	 xml:space="preserve">
<path fill="#FFFFFF" d="M45,16.2c0,0-4.3-16-21.2-16.1c-1.7,0-4.1,0-6.4,0.6C16,1,14.7,2,13.4,2.3c0,0-13.6,8.7-8.7,23.2
	c0,0,23.399,4.5,34.7-2.9C41.8,21,44.1,19.2,45,16.2z"/>
<path fill="#FFFFFF" d="M35.2,25.5c-13.9,5.6-20.5,8.2-25.6,8.3c-3.4,0.101-5.2,0.3-6.9-0.6C2.1,32.9,1.1,32.6,0.5,32.1
	c0,0-2.7-2.399,4.5-6.7"/>
<path fill="#FFFFFF" d="M34.6,25.8c0,0,18.5-9.6,9.601-11.6l-0.5,1.6"/>
<linearGradient id="SVGID_1_" gradientUnits="userSpaceOnUse" x1="281.7402" y1="-328.7998" x2="299.9668" y2="-328.7998" gradientTransform="matrix(1 0 0 -1 -276 -315)">
	<stop  offset="0.0245" style="stop-color:#333331"/>
	<stop  offset="1" style="stop-color:#3F3E3E"/>
</linearGradient>
<path fill="url(#SVGID_1_)" d="M5.7,26.2L8,26.8l2.8,0.8c0,0-1.1-1-1.2-3.5c-0.1-2.5,0.7-6.4,2-9.6c1-2.6,2.7-5,4.2-7.4
	c0.5-0.8,2.8-3.2,3.4-3.8c2-2,2.2-2.3,4.8-3.3C24,0,6.7-0.1,5.7,26.2z"/>
<polygon fill="#FFFFFF" points="35.2,25.5 36.8,23.6 32.9,23.7 31.9,25.1 32.3,26.1 "/>
</svg>
