<?xml version="1.0" encoding="utf-8"?>
<!-- Generator: Adobe Illustrator 15.0.0, SVG Export Plug-In . SVG Version: 6.00 Build 0)  -->
<!DOCTYPE svg PUBLIC "-//W3C//DTD SVG 1.1//EN" "http://www.w3.org/Graphics/SVG/1.1/DTD/svg11.dtd">
<svg version="1.1" id="Layer_1" xmlns="http://www.w3.org/2000/svg" xmlns:xlink="http://www.w3.org/1999/xlink" x="0px" y="0px"
	 width="34.023px" height="47.2px" viewBox="-0.001 0 34.023 47.2" enable-background="new -0.001 0 34.023 47.2"
	 xml:space="preserve">
<path fill="#F5F5F5" d="M33.2,31.4c0,8.699-7.3,15.8-16.3,15.8c-9,0-16.3-7.101-16.3-15.8C0.7,22.7,8,15.6,17,15.6
	C25.9,15.6,33.2,22.7,33.2,31.4z"/>
<path fill="#F5F5F5" d="M25.9,44.3C48.8,28,16,0,16,0C-8.3,24.8,2.3,38.5,2.3,38.5"/>
<ellipse fill="#222321" cx="17" cy="37.5" rx="8.5" ry="8.1"/>
<path fill="#222321" d="M21.7,44c12-8.3-5.2-22.6-5.2-22.6C3.8,34.1,9.3,41.1,9.3,41.1"/>
<ellipse fill="#F5F5F5" cx="16.9" cy="41.7" rx="4" ry="3.8"/>
<path fill="#F5F5F5" d="M19.1,44.8c5.7-3.899-2.4-10.7-2.4-10.7c-6,6-3.4,9.301-3.4,9.301"/>
</svg>
