<?xml version="1.0" encoding="utf-8"?>
<!-- Generator: Adobe Illustrator 15.0.0, SVG Export Plug-In  -->
<!DOCTYPE svg PUBLIC "-//W3C//DTD SVG 1.1//EN" "http://www.w3.org/Graphics/SVG/1.1/DTD/svg11.dtd" [
	<!ENTITY ns_flows "http://ns.adobe.com/Flows/1.0/">
]>
<svg version="1.1"
	 xmlns="http://www.w3.org/2000/svg" xmlns:xlink="http://www.w3.org/1999/xlink" xmlns:a="http://ns.adobe.com/AdobeSVGViewerExtensions/3.0/"
	 x="0px" y="0px" width="174px" height="129px" viewBox="0 0 174 129" overflow="visible" enable-background="new 0 0 174 129"
	 xml:space="preserve">
<defs>
</defs>
<path fill="#010202" d="M19.6,65.8v11.6l17.8,9.1l-17.8,9v17.1c0,0-0.5,2-0.8,2.3c0,0-1.6,4.7-6.2,4.4l-8.2-0.7l-2,9.3
	c0,0,14.8,4,28.8-1.5l1.2-0.7c0,0,5.6-3.4,5.7-14.4V65.8H19.6z"/>
<rect x="43.6" y="65.8" fill="#010202" width="18" height="52.6"/>
<path fill="#010202" d="M102.5,78.4c-1.1-5.4-6-8.2-6-8.2c-1.4-1.7-9.4-3.2-9.4-3.2c-3.9-1.1-25.4-1.2-25.4-1.2v32.7H82
	c6.8-1,9.1-1.9,9.1-1.9c7.6-2.6,9.6-7.3,9.6-7.3C102.8,86.3,102.5,78.4,102.5,78.4z M82,86.3c-0.8,0.5-2.1,1.1-3.1,1.4
	c-6,1.8-16.9,0.2-16.9,0.2V76.7h13.7c4.1,0,6.8,2.7,6.8,2.7l0.7,1.7C83.6,84.2,82,86.3,82,86.3z"/>
<rect x="107.6" y="65.8" fill="#010202" width="18" height="52"/>
<path fill="#010202" d="M172.9,96.6l-1.2-1.9c-3-3.7-9.9-4.7-9.9-4.7l-9.6-0.8c11,0.5,12.9-7,12.9-7c1.8-8.7-4.3-12.4-4.3-12.4
	c-4.2-3.4-18.5-4-18.5-4h-16.7v10.7l16.8,0.1c2.7,0.5,4.2,3,4.2,3v2.5c-0.6,2.8-5.4,3.3-5.4,3.3h-15.4l-0.1-9v41.4h32.6
	c0,0,4.4-0.8,6.9-2.2c3.2-1.8,6.5-5.8,6.5-5.8C176,104.8,172.9,96.6,172.9,96.6z M153.3,103.9c-0.7,3.7-7,4.3-7,4.3h-19.8l-0.1-11.7
	l21.5,0.2c3.5,0.6,5.4,4,5.4,4V103.9z"/>
<path fill="#9C2422" d="M67.5,0c0,0,19.7,24.6,32.6,24.9h1c0,0-9.5,7.9-21.2,15.8L63.5,53.1c0,0,14.9-16.9,16-25.1
	c0,0,0.1-4.2-1-8.1c0,0-3.8-10.1-6.3-12.7L67.5,0z"/>
<path fill="#9C2422" d="M76.8,0c0,0,5.2,3.5,8.6,3.2c0,0,4.5-0.7,7.5-2.2c0,0-7.2,7.2-7.6,10.7C85.4,11.7,76.7,0.4,76.8,0z"/>
<path fill="#9C2422" d="M84.2,39.4l7.9,7v2.2l-1.2,6.8c0,0-0.3-4.5-1.4-7.3L84.2,39.4z"/>
<path fill="#9C2422" d="M17.3,64v11.6l17.8,9.1l-17.8,9v17.1c0,0-0.5,2-0.8,2.3c0,0-1.6,4.7-6.2,4.4L2,116.8l-2,9.3
	c0,0,14.8,4,28.8-1.5l1.2-0.7c0,0,5.6-3.4,5.7-14.4V64H17.3z"/>
<rect x="41.2" y="64" fill="#9C2422" width="18" height="52.6"/>
<path fill="#9C2422" d="M100.1,76.6c-1.1-5.4-6-8.2-6-8.2c-1.4-1.7-9.4-3.2-9.4-3.2C80.8,64.1,59.2,64,59.2,64v32.7h20.4
	c6.8-1,9.1-1.9,9.1-1.9c7.6-2.6,9.6-7.3,9.6-7.3C100.5,84.4,100.1,76.6,100.1,76.6z M79.7,84.4c-0.8,0.5-2.1,1.1-3.1,1.4
	c-6,1.8-16.9,0.2-16.9,0.2V74.9h13.7c4.1,0,6.8,2.7,6.8,2.7l0.7,1.7C81.3,82.4,79.7,84.4,79.7,84.4z"/>
<rect x="105.2" y="64" fill="#9C2422" width="18" height="52"/>
<path fill="#9C2422" d="M170.6,94.8l-1.2-1.9c-3-3.7-9.9-4.7-9.9-4.7l-9.6-0.8c11,0.5,12.9-7,12.9-7c1.8-8.7-4.3-12.4-4.3-12.4
	c-4.2-3.4-18.5-4-18.5-4h-16.7v10.7l16.8,0.1c2.7,0.5,4.2,3,4.2,3v2.5c-0.6,2.8-5.4,3.3-5.4,3.3h-15.4l-0.1-9v41.4h32.6
	c0,0,4.4-0.8,6.9-2.2c3.2-1.8,6.5-5.8,6.5-5.8C173.7,102.9,170.6,94.8,170.6,94.8z M151,102.1c-0.7,3.7-7,4.3-7,4.3h-19.8l-0.1-11.7
	l21.5,0.2c3.5,0.6,5.4,4,5.4,4V102.1z"/>
</svg>
