<?xml version="1.0" encoding="utf-8"?>
<!-- Generator: Adobe Illustrator 15.0.0, SVG Export Plug-In . SVG Version: 6.00 Build 0)  -->
<!DOCTYPE svg PUBLIC "-//W3C//DTD SVG 1.1//EN" "http://www.w3.org/Graphics/SVG/1.1/DTD/svg11.dtd">
<svg version="1.1" id="Layer_1" xmlns="http://www.w3.org/2000/svg" xmlns:xlink="http://www.w3.org/1999/xlink" x="0px" y="0px"
	 width="47.197px" height="44.882px" viewBox="-0.003 -0.033 47.197 44.882" enable-background="new -0.003 -0.033 47.197 44.882"
	 xml:space="preserve">
<path fill="#FFFFFF" d="M45.8,36.1L21,12.6c-0.4-0.7-2-1.3-2-1.3C20.6,4,14.2,0.9,14.2,0.9C12.4-0.3,7.8,0,7.8,0l4.7,4.2
	c1.8,1.8,0.6,3.9,0.6,3.9l-4.3,4.1c-2.5,1-3.5,0.1-3.5,0.1L0.1,7.6C-0.8,13,4.5,17,4.5,17c2.3,2,7.7,1,7.7,1c0,0.3,0.8,1.8,0.8,1.8
	l25.3,23.9c5.4,2.8,7.7-0.4,7.7-0.4C48.8,39.7,45.8,36.1,45.8,36.1z M41.8,42.1c-1.3,0-2.3-1-2.3-2.199c0-1.2,1-2.2,2.3-2.2
	s2.3,1,2.3,2.2C44,41.1,43,42.1,41.8,42.1z"/>
</svg>
